<?xml version="1.0" encoding="utf-8"?>
<!-- Generator: Adobe Illustrator 19.0.0, SVG Export Plug-In . SVG Version: 6.00 Build 0)  -->
<svg version="1.1" id="Layer_2" xmlns="http://www.w3.org/2000/svg" xmlns:xlink="http://www.w3.org/1999/xlink" x="0px" y="0px"
	 viewBox="0 0 306.9 161.4" style="enable-background:new 0 0 306.9 161.4;" xml:space="preserve">
<g id="XMLID_3_" stroke="#222" fill="orange">
	<polygon id="XMLID_77_" points="67.5,63.5 67.5,89.4 5,89.4 5,78.4 51,14.4 16.8,14.4 16.8,30.1 7.1,30.1 7.1,5 66.3,5 66.3,14.1 
		19,79.8 58,79.8 58,63.5 	"/>
	<polygon id="XMLID_102_" points="136.6,29.7 136.6,14.9 99.1,14.9 99.1,41.2 131,41.2 131,50.7 99.1,50.7 99.1,79.8 136.6,79.8 
		136.6,64 146.2,64 146.2,89.4 76,89.4 76,79.8 87.4,79.8 87.4,14.9 76,14.9 76,5 146.2,5 146.2,29.7 	"/>
	<path id="XMLID_74_" d="M233.8,5v9.9h-10.2v44.6c0,18.4-7.1,31.3-30.2,31.3c-23.2,0-30.2-12.9-30.2-31.3V14.9h-10.2V5h32.8v9.9
		h-10.4V59c0,18.2,10.5,21.8,18,21.8s18-3.6,18-21.8V14.9h-10.4V5H233.8z"/>
	<polygon id="XMLID_2_" points="239.4,63.5 239.4,89.4 301.9,89.4 301.9,78.4 255.9,14.4 290.1,14.4 290.1,30.1 299.8,30.1 299.8,5 
		240.6,5 240.6,14.1 287.9,79.8 248.9,79.8 248.9,63.5 	"/>
</g>
<g id="XMLID_5_">
	<rect id="XMLID_6_" fill="#222" x="26.1" y="117" width="254.6" height="3.7"/>
	<path id="XMLID_12_" fill="orange" stroke="#222" d="M162.4,126.6c-0.1,1.1,1.1,2.8,1.1,2.8c-4.9-1.1-9.1-0.9-9.1-0.9l0.4,7.9h-2.5l0.4-7.9c0,0-4.3-0.2-9.1,0.9
		c0,0,1.3-1.7,1.1-2.8c-0.1-1.1-9.3-7.9-9.3-7.9s1.8,0.1,2.6-0.6c0.5-0.5-0.4-3.1-2.1-7.5c3.5,1.2,4.8,1.5,5.6,1.3c0.9-0.2,1-3,1-3
		c3.9,4.8,4.7,5.2,5.2,5.1c0.5-0.1,0.4-2.4-1.4-10.7c0,0,2.3,2,3,1.8c1.1-0.3,2.6-3.5,4.3-7c1.7,3.5,3.2,6.7,4.3,7
		c0.7,0.2,3-1.8,3-1.8c-1.8,8.3-1.9,10.6-1.4,10.7c0.5,0.1,1.3-0.3,5.2-5.1c0,0,0,2.7,1,2.9c0.8,0.2,2.2-0.1,5.6-1.3
		c-1.7,4.4-2.6,7-2.1,7.5c0.8,0.7,2.6,0.6,2.6,0.6S162.5,125.5,162.4,126.6z"/>
</g>
<g id="XMLID_4_" fill="orange">
	<path id="XMLID_7_" d="M28.6,143.4h7.3v1.2h-6v4h5.9v1.2h-5.9v5h5.9v1.2h-7.2V143.4z"/>
	<path id="XMLID_9_" d="M40.3,143.4h1.3v11.5h4.9v1.2h-6.1V143.4z"/>
	<path id="XMLID_11_" d="M50.7,143.4H58v1.2h-6v4h5.9v1.2H52v5h5.9v1.2h-7.2V143.4z"/>
	<path id="XMLID_14_" d="M74.2,145.8l-1,0.8c-0.6-0.7-1.2-1.3-2-1.6c-0.8-0.4-1.6-0.6-2.5-0.6c-1,0-1.9,0.2-2.8,0.7s-1.5,1.1-2,2
		s-0.7,1.7-0.7,2.8c0,1.5,0.5,2.8,1.6,3.9c1.1,1,2.4,1.6,4,1.6c1.8,0,3.3-0.7,4.5-2.1l1,0.8c-0.6,0.8-1.4,1.4-2.4,1.9
		c-0.9,0.4-2,0.7-3.2,0.7c-2.2,0-4-0.7-5.3-2.2c-1.1-1.2-1.6-2.8-1.6-4.5c0-1.9,0.7-3.4,2-4.7c1.3-1.3,2.9-1.9,4.9-1.9
		c1.2,0,2.3,0.2,3.2,0.7C72.8,144.3,73.6,144.9,74.2,145.8z"/>
	<path id="XMLID_16_" d="M77.8,144.7v-1.2h6.9v1.2h-2.8v11.4h-1.3v-11.4H77.8z"/>
	<path id="XMLID_18_" d="M88.9,143.4h2.5c1.4,0,2.4,0.1,2.9,0.2c0.8,0.2,1.4,0.5,1.8,1.1s0.7,1.3,0.7,2.1c0,0.7-0.2,1.3-0.5,1.8
		c-0.3,0.5-0.8,0.9-1.4,1.2c-0.6,0.3-1.4,0.4-2.5,0.4l4.6,5.9h-1.6l-4.6-5.9h-0.7v5.9h-1.3V143.4z M90.1,144.7v4.3l2.2,0
		c0.8,0,1.5-0.1,1.9-0.2c0.4-0.2,0.7-0.4,0.9-0.8c0.2-0.4,0.3-0.7,0.3-1.2c0-0.4-0.1-0.8-0.3-1.2c-0.2-0.3-0.5-0.6-0.9-0.7
		s-1-0.2-1.9-0.2H90.1z"/>
	<path id="XMLID_21_" d="M101.6,143.4h1.3v12.7h-1.3V143.4z"/>
	<path id="XMLID_23_" d="M119.8,145.8l-1,0.8c-0.6-0.7-1.2-1.3-2-1.6c-0.8-0.4-1.6-0.6-2.5-0.6c-1,0-1.9,0.2-2.8,0.7s-1.5,1.1-2,2
		s-0.7,1.7-0.7,2.8c0,1.5,0.5,2.8,1.6,3.9c1.1,1,2.4,1.6,4,1.6c1.8,0,3.3-0.7,4.5-2.1l1,0.8c-0.6,0.8-1.4,1.4-2.4,1.9
		c-0.9,0.4-2,0.7-3.2,0.7c-2.2,0-4-0.7-5.3-2.2c-1.1-1.2-1.6-2.8-1.6-4.5c0-1.9,0.7-3.4,2-4.7c1.3-1.3,2.9-1.9,4.9-1.9
		c1.2,0,2.3,0.2,3.2,0.7C118.4,144.3,119.2,144.9,119.8,145.8z"/>
	<path id="XMLID_25_" d="M131.2,156.1l1.8-12.7h0.2l5.2,10.4l5.1-10.4h0.2l1.8,12.7h-1.2l-1.3-9.1l-4.5,9.1h-0.3l-4.5-9.1l-1.2,9.1
		H131.2z"/>
	<path id="XMLID_27_" d="M156.2,143.1c1.9,0,3.5,0.6,4.8,1.9c1.3,1.3,1.9,2.9,1.9,4.7c0,1.9-0.6,3.4-1.9,4.7
		c-1.3,1.3-2.9,1.9-4.7,1.9c-1.9,0-3.5-0.6-4.8-1.9c-1.3-1.3-1.9-2.8-1.9-4.7c0-1.2,0.3-2.3,0.9-3.4c0.6-1,1.4-1.9,2.4-2.4
		C154,143.4,155.1,143.1,156.2,143.1z M156.3,144.4c-0.9,0-1.8,0.2-2.7,0.7c-0.8,0.5-1.5,1.1-2,2c-0.5,0.8-0.7,1.8-0.7,2.8
		c0,1.5,0.5,2.8,1.6,3.8c1,1,2.3,1.6,3.8,1.6c1,0,1.9-0.2,2.7-0.7c0.8-0.5,1.5-1.1,2-2c0.5-0.8,0.7-1.7,0.7-2.8c0-1-0.2-1.9-0.7-2.7
		c-0.5-0.8-1.1-1.5-2-2C158.2,144.6,157.3,144.4,156.3,144.4z"/>
	<path id="XMLID_30_" d="M166.5,144.7v-1.2h6.9v1.2h-2.8v11.4h-1.3v-11.4H166.5z"/>
	<path id="XMLID_32_" d="M183.6,143.1c1.9,0,3.5,0.6,4.8,1.9c1.3,1.3,1.9,2.9,1.9,4.7c0,1.9-0.6,3.4-1.9,4.7
		c-1.3,1.3-2.9,1.9-4.7,1.9c-1.9,0-3.5-0.6-4.8-1.9c-1.3-1.3-1.9-2.8-1.9-4.7c0-1.2,0.3-2.3,0.9-3.4c0.6-1,1.4-1.9,2.4-2.4
		C181.3,143.4,182.4,143.1,183.6,143.1z M183.7,144.4c-0.9,0-1.8,0.2-2.7,0.7c-0.8,0.5-1.5,1.1-2,2c-0.5,0.8-0.7,1.8-0.7,2.8
		c0,1.5,0.5,2.8,1.6,3.8c1,1,2.3,1.6,3.8,1.6c1,0,1.9-0.2,2.7-0.7c0.8-0.5,1.5-1.1,2-2c0.5-0.8,0.7-1.7,0.7-2.8c0-1-0.2-1.9-0.7-2.7
		c-0.5-0.8-1.1-1.5-2-2C185.5,144.6,184.6,144.4,183.7,144.4z"/>
	<path id="XMLID_35_" d="M195.2,143.4h2.5c1.4,0,2.4,0.1,2.9,0.2c0.8,0.2,1.4,0.5,1.8,1.1s0.7,1.3,0.7,2.1c0,0.7-0.2,1.3-0.5,1.8
		c-0.3,0.5-0.8,0.9-1.4,1.2c-0.6,0.3-1.4,0.4-2.5,0.4l4.6,5.9h-1.6l-4.6-5.9h-0.7v5.9h-1.3V143.4z M196.5,144.7v4.3l2.2,0
		c0.8,0,1.5-0.1,1.9-0.2c0.4-0.2,0.7-0.4,0.9-0.8c0.2-0.4,0.3-0.7,0.3-1.2c0-0.4-0.1-0.8-0.3-1.2c-0.2-0.3-0.5-0.6-0.9-0.7
		s-1-0.2-1.9-0.2H196.5z"/>
	<path id="XMLID_38_" d="M206.8,153.8l1.1-0.6c0.8,1.4,1.6,2.1,2.6,2.1c0.4,0,0.8-0.1,1.2-0.3s0.7-0.5,0.9-0.8
		c0.2-0.3,0.3-0.7,0.3-1.1c0-0.4-0.1-0.8-0.4-1.3c-0.4-0.6-1.1-1.2-2.2-2c-1.1-0.8-1.7-1.4-2-1.7c-0.4-0.6-0.7-1.2-0.7-1.9
		c0-0.6,0.1-1.1,0.4-1.5s0.6-0.8,1.1-1.1s1-0.4,1.6-0.4c0.6,0,1.2,0.1,1.7,0.4s1.1,0.8,1.7,1.6l-1,0.8c-0.5-0.6-0.9-1-1.2-1.2
		c-0.3-0.2-0.7-0.3-1.1-0.3c-0.5,0-0.9,0.2-1.3,0.5c-0.3,0.3-0.5,0.7-0.5,1.1c0,0.3,0.1,0.5,0.2,0.8c0.1,0.3,0.3,0.5,0.6,0.8
		c0.2,0.2,0.7,0.6,1.6,1.3c1.1,0.8,1.9,1.5,2.3,2.2c0.4,0.6,0.6,1.3,0.6,1.9c0,0.9-0.3,1.7-1,2.4c-0.7,0.7-1.5,1-2.5,1
		c-0.8,0-1.5-0.2-2.1-0.6C207.9,155.4,207.4,154.7,206.8,153.8z"/>
	<path id="XMLID_40_" d="M219.2,143.4h2.5c1.4,0,2.4,0.1,2.9,0.2c0.7,0.2,1.3,0.5,1.8,1.1s0.7,1.3,0.7,2.1c0,0.8-0.2,1.5-0.7,2.1
		c-0.4,0.5-1.1,0.9-1.9,1.1c-0.6,0.1-1.7,0.2-3.2,0.2h-0.9v5.9h-1.3V143.4z M220.4,144.7v4.3l2.1,0c0.9,0,1.5-0.1,1.9-0.2
		c0.4-0.2,0.7-0.4,0.9-0.8c0.2-0.4,0.3-0.7,0.3-1.2c0-0.4-0.1-0.8-0.3-1.2c-0.2-0.4-0.5-0.6-0.9-0.8c-0.4-0.1-1-0.2-1.8-0.2H220.4z"
		/>
	<path id="XMLID_43_" d="M237.9,143.1c1.9,0,3.5,0.6,4.8,1.9c1.3,1.3,1.9,2.9,1.9,4.7c0,1.9-0.6,3.4-1.9,4.7s-2.9,1.9-4.7,1.9
		c-1.9,0-3.5-0.6-4.8-1.9s-1.9-2.8-1.9-4.7c0-1.2,0.3-2.3,0.9-3.4c0.6-1,1.4-1.9,2.4-2.4C235.6,143.4,236.7,143.1,237.9,143.1z
		 M238,144.4c-0.9,0-1.8,0.2-2.7,0.7c-0.8,0.5-1.5,1.1-2,2c-0.5,0.8-0.7,1.8-0.7,2.8c0,1.5,0.5,2.8,1.6,3.8c1,1,2.3,1.6,3.8,1.6
		c1,0,1.9-0.2,2.7-0.7c0.8-0.5,1.5-1.1,2-2c0.5-0.8,0.7-1.7,0.7-2.8c0-1-0.2-1.9-0.7-2.7c-0.5-0.8-1.1-1.5-2-2
		C239.8,144.6,238.9,144.4,238,144.4z"/>
	<path id="XMLID_46_" d="M249.5,143.4h2.5c1.4,0,2.4,0.1,2.9,0.2c0.8,0.2,1.4,0.5,1.8,1.1s0.7,1.3,0.7,2.1c0,0.7-0.2,1.3-0.5,1.8
		c-0.3,0.5-0.8,0.9-1.4,1.2c-0.6,0.3-1.4,0.4-2.5,0.4l4.6,5.9h-1.6l-4.6-5.9h-0.7v5.9h-1.3V143.4z M250.8,144.7v4.3l2.2,0
		c0.8,0,1.5-0.1,1.9-0.2c0.4-0.2,0.7-0.4,0.9-0.8c0.2-0.4,0.3-0.7,0.3-1.2c0-0.4-0.1-0.8-0.3-1.2c-0.2-0.3-0.5-0.6-0.9-0.7
		s-1-0.2-1.9-0.2H250.8z"/>
	<path id="XMLID_49_" d="M261.2,144.7v-1.2h6.9v1.2h-2.8v11.4H264v-11.4H261.2z"/>
	<path id="XMLID_51_" d="M270.9,153.8l1.1-0.6c0.8,1.4,1.6,2.1,2.6,2.1c0.4,0,0.8-0.1,1.2-0.3s0.7-0.5,0.9-0.8
		c0.2-0.3,0.3-0.7,0.3-1.1c0-0.4-0.1-0.8-0.4-1.3c-0.4-0.6-1.1-1.2-2.2-2c-1.1-0.8-1.7-1.4-2-1.7c-0.4-0.6-0.7-1.2-0.7-1.9
		c0-0.6,0.1-1.1,0.4-1.5s0.6-0.8,1.1-1.1s1-0.4,1.6-0.4c0.6,0,1.2,0.1,1.7,0.4s1.1,0.8,1.7,1.6l-1,0.8c-0.5-0.6-0.9-1-1.2-1.2
		c-0.3-0.2-0.7-0.3-1.1-0.3c-0.5,0-0.9,0.2-1.3,0.5c-0.3,0.3-0.5,0.7-0.5,1.1c0,0.3,0.1,0.5,0.2,0.8c0.1,0.3,0.3,0.5,0.6,0.8
		c0.2,0.2,0.7,0.6,1.6,1.3c1.1,0.8,1.9,1.5,2.3,2.2c0.4,0.6,0.6,1.3,0.6,1.9c0,0.9-0.3,1.7-1,2.4c-0.7,0.7-1.5,1-2.5,1
		c-0.8,0-1.5-0.2-2.1-0.6C272,155.4,271.4,154.7,270.9,153.8z"/>
</g>
</svg>
