<?xml version="1.0" encoding="utf-8"?>
<!-- Generator: Adobe Illustrator 19.0.0, SVG Export Plug-In . SVG Version: 6.00 Build 0)  -->
<svg version="1.1" id="Layer_2" xmlns="http://www.w3.org/2000/svg" xmlns:xlink="http://www.w3.org/1999/xlink" x="0px" y="0px"
	 viewBox="0 0 551 698.7" style="enable-background:new 0 0 551 698.7;" xml:space="preserve">
<style type="text/css">
	.st0{fill:#F16824;}
	.st1{fill:#FFFFFF;}
</style>
<circle id="XMLID_4_" class="st0" cx="275.5" cy="282.5" r="275.5"/>
<g id="XMLID_3_">
	<polygon id="XMLID_77_" class="st1" points="136.4,298.8 136.4,340.7 35.2,340.7 35.2,322.9 109.6,219.3 54.3,219.3 54.3,244.7 
		38.7,244.7 38.7,204.1 134.4,204.1 134.4,218.8 57.9,325.2 120.9,325.2 120.9,298.8 	"/>
	<polygon id="XMLID_102_" class="st1" points="248.3,244 248.3,220.2 187.5,220.2 187.5,262.8 239.2,262.8 239.2,278.2 187.5,278.2 
		187.5,325.2 248.3,325.2 248.3,299.6 263.7,299.6 263.7,340.7 150.1,340.7 150.1,325.2 168.6,325.2 168.6,220.2 150.1,220.2 
		150.1,204.1 263.7,204.1 263.7,244 	"/>
	<path id="XMLID_74_" class="st1" d="M405.6,204.1v16.1h-16.5v72.2c0,29.7-11.5,50.7-49,50.7c-37.5,0-49-20.9-49-50.7v-72.2h-16.5
		v-16.1h53v16.1h-16.8v71.4c0,29.5,17.1,35.3,29.2,35.3c12.1,0,29.2-5.8,29.2-35.3v-71.4h-16.8v-16.1H405.6z"/>
	<polygon id="XMLID_2_" class="st1" points="414.6,298.8 414.6,340.7 515.8,340.7 515.8,322.9 441.4,219.3 496.7,219.3 496.7,244.7 
		512.3,244.7 512.3,204.1 416.6,204.1 416.6,218.8 493.1,325.2 430.1,325.2 430.1,298.8 	"/>
</g>
<g id="XMLID_1_">
	<polygon id="XMLID_16_" points="513.2,0 441.6,191.3 88.3,191.3 67.2,0 	"/>
	<polygon id="XMLID_19_" points="506.5,399.3 318.5,698.7 282.5,477.3 119.8,477.3 106.4,355.3 380.3,355.3 363.8,399.3 	"/>
</g>
</svg>
